<svg width="102" height="107" viewBox="0 0 102 107" fill="none" xmlns="http://www.w3.org/2000/svg">
<g clip-path="url(#clip0_1_2)">
<path d="M0 30C0 13.4315 13.4315 0 30 0V0V80.3333C30 95.0609 18.0609 107 3.33333 107V107C1.49238 107 0 105.508 0 103.667V30Z" fill="url(#paint0_linear_1_2)"/>
<path d="M72 26.5116C72 11.8697 83.8697 0 98.5116 0V0C100.438 0 102 1.5618 102 3.48837V77C102 93.5685 88.5685 107 72 107V107V26.5116Z" fill="url(#paint1_linear_1_2)"/>
<path d="M36 0H46C57.0457 0 66 8.95431 66 20V107H56C44.9543 107 36 98.0457 36 87V0Z" fill="url(#paint2_linear_1_2)"/>
</g>
<defs>
<linearGradient id="paint0_linear_1_2" x1="28" y1="1.22157e-08" x2="28" y2="94" gradientUnits="userSpaceOnUse">
<stop stop-color="#262626"/>
<stop offset="1" stop-color="#0A0A0A"/>
</linearGradient>
<linearGradient id="paint1_linear_1_2" x1="74.5" y1="2" x2="74.5" y2="106" gradientUnits="userSpaceOnUse">
<stop stop-color="#0A0A0A"/>
<stop offset="1" stop-color="#262626"/>
</linearGradient>
<linearGradient id="paint2_linear_1_2" x1="51" y1="0" x2="51" y2="107" gradientUnits="userSpaceOnUse">
<stop stop-color="#0A0A0A"/>
<stop offset="1" stop-color="#262626"/>
</linearGradient>
<clipPath id="clip0_1_2">
<rect width="102" height="107" fill="white"/>
</clipPath>
</defs>
</svg>
